/* XPM */
static char * bitcoin32_xpm[] = {
"32 32 608 2",
"  	c None",
". 	c #1D0215",
"+ 	c #1C0114",
"@ 	c #1B0113",
"# 	c #1A0114",
"$ 	c #1A0113",
"% 	c #250017",
"& 	c #220118",
"* 	c #200016",
"= 	c #1F0116",
"- 	c #1F0216",
"; 	c #1E0116",
"> 	c #1D0116",
", 	c #1E0216",
"' 	c #1E0115",
") 	c #1D0115",
"! 	c #1E0217",
"~ 	c #1E0417",
"{ 	c #1C0116",
"] 	c #2A011C",
"^ 	c #29011B",
"/ 	c #260019",
"( 	c #26011A",
"_ 	c #240118",
": 	c #230117",
"< 	c #210117",
"[ 	c #210116",
"} 	c #200118",
"| 	c #200117",
"1 	c #1F0118",
"2 	c #1F0117",
"3 	c #1E0117",
"4 	c #2B011B",
"5 	c #2E021D",
"6 	c #2D011D",
"7 	c #2D001D",
"8 	c #2C011D",
"9 	c #29001A",
"0 	c #270019",
"a 	c #26001A",
"b 	c #25001A",
"c 	c #25021A",
"d 	c #230119",
"e 	c #23011A",
"f 	c #230118",
"g 	c #220019",
"h 	c #210118",
"i 	c #200218",
"j 	c #1F0218",
"k 	c #1F0217",
"l 	c #2F001B",
"m 	c #2E011C",
"n 	c #2F011C",
"o 	c #30011F",
"p 	c #320221",
"q 	c #300220",
"r 	c #2E021E",
"s 	c #2A011B",
"t 	c #28011C",
"u 	c #28011B",
"v 	c #25011A",
"w 	c #25011B",
"x 	c #250019",
"y 	c #24011A",
"z 	c #240119",
"A 	c #220119",
"B 	c #210119",
"C 	c #2E011B",
"D 	c #330621",
"E 	c #370923",
"F 	c #3C0F2B",
"G 	c #401230",
"H 	c #3F122E",
"I 	c #3D122C",
"J 	c #371129",
"K 	c #310B23",
"L 	c #2B051E",
"M 	c #28021B",
"N 	c #2B041F",
"O 	c #2C0822",
"P 	c #320F28",
"Q 	c #331129",
"R 	c #321128",
"S 	c #300F27",
"T 	c #2A0822",
"U 	c #27051E",
"V 	c #22011A",
"W 	c #22021B",
"X 	c #2D001A",
"Y 	c #2E001A",
"Z 	c #2D011A",
"` 	c #3F152E",
" .	c #A38E9A",
"..	c #C2B5BD",
"+.	c #C4B5BE",
"@.	c #C3B5BD",
"#.	c #C2B5BC",
"$.	c #C2B6BD",
"%.	c #AB9BA5",
"&.	c #502F45",
"*.	c #2A031D",
"=.	c #29011D",
"-.	c #300924",
";.	c #937F8C",
">.	c #BEB3BB",
",.	c #BFB5BC",
"'.	c #C0B6BD",
").	c #998995",
"!.	c #38172F",
"~.	c #24011B",
"{.	c #23011B",
"].	c #22011B",
"^.	c #2F011B",
"/.	c #2F021C",
"(.	c #2E001B",
"_.	c #4E253E",
":.	c #E4DDE1",
"<.	c #FFFFFF",
"[.	c #FBFAFA",
"}.	c #A08D9A",
"|.	c #330C27",
"1.	c #2A011D",
"2.	c #370F2B",
"3.	c #D1C8CE",
"4.	c #D8D1D6",
"5.	c #4C2D44",
"6.	c #24001B",
"7.	c #23011C",
"8.	c #30021D",
"9.	c #30011C",
"0.	c #31021D",
"a.	c #30011D",
"b.	c #3E142D",
"c.	c #9C8693",
"d.	c #BEAFB8",
"e.	c #BFB0B9",
"f.	c #BEB0B8",
"g.	c #C0B2BA",
"h.	c #E3DCE0",
"i.	c #DED6DB",
"j.	c #694C60",
"k.	c #2E0521",
"l.	c #3A122D",
"m.	c #D2C9CF",
"n.	c #FDFCFC",
"o.	c #E9E4E7",
"p.	c #DBD5DA",
"q.	c #D7CFD5",
"r.	c #53334A",
"s.	c #28021E",
"t.	c #27011D",
"u.	c #27011E",
"v.	c #27021F",
"w.	c #31011D",
"x.	c #30001B",
"y.	c #3B0E29",
"z.	c #725265",
"A.	c #8E7484",
"B.	c #907786",
"C.	c #907787",
"D.	c #876C7C",
"E.	c #7E6174",
"F.	c #F3F0F1",
"G.	c #AF9FA9",
"H.	c #3F1832",
"I.	c #2D021E",
"J.	c #3A132C",
"K.	c #D3C9CF",
"L.	c #CAC0C7",
"M.	c #9E8A98",
"N.	c #D8CFD5",
"O.	c #54334B",
"P.	c #2B0220",
"Q.	c #29031F",
"R.	c #29021F",
"S.	c #290320",
"T.	c #28031F",
"U.	c #2F0118",
"V.	c #2F011A",
"W.	c #31011B",
"X.	c #31001D",
"Y.	c #4E243C",
"Z.	c #DBD2D7",
"`.	c #FEFDFD",
" +	c #FCFBFB",
".+	c #F5F2F4",
"++	c #886D7E",
"@+	c #A894A0",
"#+	c #EBE6E9",
"$+	c #795D70",
"%+	c #320824",
"&+	c #3C152D",
"*+	c #C9BEC4",
"=+	c #9A8794",
"-+	c #D7D0D5",
";+	c #54344B",
">+	c #29021E",
",+	c #27031E",
"'+	c #26021D",
")+	c #2D0018",
"!+	c #2E0018",
"~+	c #2F0019",
"{+	c #300019",
"]+	c #562D45",
"^+	c #DED6DA",
"/+	c #FFFFFE",
"(+	c #FAF8F9",
"_+	c #FAF9F9",
":+	c #D5CAD0",
"<+	c #7C5C71",
"[+	c #E0D8DC",
"}+	c #BDAEB7",
"|+	c #4E2840",
"1+	c #3C152F",
"2+	c #C9BEC5",
"3+	c #998693",
"4+	c #55344C",
"5+	c #2A0320",
"6+	c #27021E",
"7+	c #27031D",
"8+	c #2A0014",
"9+	c #2B0015",
"0+	c #2C0217",
"a+	c #2E0017",
"b+	c #2F0018",
"c+	c #562D43",
"d+	c #B29FAB",
"e+	c #B5A2AD",
"f+	c #FFFEFE",
"g+	c #F5F2F3",
"h+	c #A08797",
"i+	c #9E8495",
"j+	c #856A7B",
"k+	c #411B34",
"l+	c #C5B9C0",
"m+	c #BFB1BA",
"n+	c #53344A",
"o+	c #29031E",
"p+	c #28011D",
"q+	c #280012",
"r+	c #290012",
"s+	c #2A0114",
"t+	c #2C0015",
"u+	c #30011A",
"v+	c #552D44",
"w+	c #A08898",
"x+	c #5C324C",
"y+	c #DCD2D8",
"z+	c #DDD3D9",
"A+	c #84657A",
"B+	c #CEC0C9",
"C+	c #D3C8CE",
"D+	c #5F3D52",
"E+	c #644458",
"F+	c #826878",
"G+	c #64465A",
"H+	c #998593",
"I+	c #2A021E",
"J+	c #290420",
"K+	c #250011",
"L+	c #260011",
"M+	c #270011",
"N+	c #2A0013",
"O+	c #300119",
"P+	c #9F8595",
"Q+	c #4A1B39",
"R+	c #805F74",
"S+	c #F9F7F7",
"T+	c #AD98A5",
"U+	c #967C8D",
"V+	c #F2EEF0",
"W+	c #988190",
"X+	c #411A33",
"Y+	c #310721",
"Z+	c #3B152D",
"`+	c #97838F",
" @	c #D8D0D5",
".@	c #2B031F",
"+@	c #2B0420",
"@@	c #2B0520",
"#@	c #28051E",
"$@	c #24000F",
"%@	c #240010",
"&@	c #2D0016",
"*@	c #552E42",
"=@	c #9D8593",
"-@	c #411330",
";@	c #4D1F3C",
">@	c #BEADB8",
",@	c #E2DBE0",
"'@	c #8A6C80",
")@	c #C2B2BC",
"!@	c #EAE5E8",
"~@	c #644259",
"{@	c #360C26",
"]@	c #3B142D",
"^@	c #97828F",
"/@	c #55364B",
"(@	c #2D0720",
"_@	c #2C0820",
":@	c #2B071F",
"<@	c #2A061F",
"[@	c #29081F",
"}@	c #22000F",
"|@	c #21000E",
"1@	c #250010",
"2@	c #280011",
"3@	c #2B0113",
"4@	c #522D3E",
"5@	c #DED6D9",
"6@	c #9D8592",
"7@	c #3E102D",
"8@	c #3C0B2B",
"9@	c #704C64",
"0@	c #EFEAED",
"a@	c #B7A5B1",
"b@	c #8E7386",
"c@	c #B4A3AE",
"d@	c #441D36",
"e@	c #3F1833",
"f@	c #978290",
"g@	c #D8D1D5",
"h@	c #55394A",
"i@	c #2B081E",
"j@	c #2A071E",
"k@	c #2B091F",
"l@	c #2B0B20",
"m@	c #2B0820",
"n@	c #2A091F",
"o@	c #20000E",
"p@	c #21000F",
"q@	c #270010",
"r@	c #2A0112",
"s@	c #502D3C",
"t@	c #DDD6D9",
"u@	c #9E8693",
"v@	c #3F122C",
"w@	c #350523",
"x@	c #491D39",
"y@	c #A48D9C",
"z@	c #EFEAEC",
"A@	c #8D7284",
"B@	c #B6A6B0",
"C@	c #735769",
"D@	c #441F38",
"E@	c #54384A",
"F@	c #2A091D",
"G@	c #2C0C20",
"H@	c #2E0F21",
"I@	c #2A0C1F",
"J@	c #29091E",
"K@	c #260010",
"L@	c #280111",
"M@	c #4F2D3B",
"N@	c #DDD6D8",
"O@	c #A08A96",
"P@	c #5E394D",
"Q@	c #78596A",
"R@	c #5F3B51",
"S@	c #69465B",
"T@	c #DAD0D6",
"U@	c #C4B6BE",
"V@	c #816576",
"W@	c #E5DFE2",
"X@	c #D3CBD0",
"Y@	c #512F43",
"Z@	c #998590",
"`@	c #D8D0D4",
" #	c #533848",
".#	c #2C0B1F",
"+#	c #2D0C1F",
"@#	c #2D0E20",
"##	c #290D1D",
"$#	c #270B1B",
"%#	c #23000F",
"&#	c #22000E",
"*#	c #250110",
"=#	c #4C2D3A",
"-#	c #DCD6D8",
";#	c #A08C95",
">#	c #B8A9B0",
",#	c #F2EFF0",
"'#	c #C5B8BF",
")#	c #441D32",
"!#	c #927A88",
"~#	c #FDFDFC",
"{#	c #FEFCFC",
"]#	c #907986",
"^#	c #A4919B",
"/#	c #FCFBFC",
"(#	c #AA9AA3",
"_#	c #A798A1",
":#	c #D7D1D4",
"<#	c #533948",
"[#	c #29091C",
"}#	c #2A0A1D",
"|#	c #2A0C1E",
"1#	c #2B0E1F",
"2#	c #290E1D",
"3#	c #270D1C",
"4#	c #24000E",
"5#	c #23000E",
"6#	c #25010E",
"7#	c #4B2D39",
"8#	c #DBD6D8",
"9#	c #9E8C95",
"0#	c #C3B7BC",
"a#	c #D4CACF",
"b#	c #3E162B",
"c#	c #553244",
"d#	c #C7BBC1",
"e#	c #D7CFD4",
"f#	c #705765",
"g#	c #F8F8F8",
"h#	c #D6D1D4",
"i#	c #523947",
"j#	c #270A1A",
"k#	c #270A1C",
"l#	c #270C1B",
"m#	c #250D1C",
"n#	c #22000C",
"o#	c #24000D",
"p#	c #23000D",
"q#	c #25010D",
"r#	c #4C2D38",
"s#	c #9F8C93",
"t#	c #D4CACE",
"u#	c #3A1527",
"v#	c #330C20",
"w#	c #856D79",
"x#	c #EFEBED",
"y#	c #9A8992",
"z#	c #87737D",
"A#	c #F9F8F8",
"B#	c #FBFBFB",
"C#	c #FEFFFE",
"D#	c #D2CDD0",
"E#	c #49323F",
"F#	c #240A18",
"G#	c #230B19",
"H#	c #220C18",
"I#	c #220C19",
"J#	c #21000B",
"K#	c #20000C",
"L#	c #1F000B",
"M#	c #1C010C",
"N#	c #412E36",
"O#	c #D9D6D7",
"P#	c #9A9095",
"Q#	c #C0B9BC",
"R#	c #FEFEFE",
"S#	c #D1CACD",
"T#	c #351320",
"U#	c #270514",
"V#	c #3F202E",
"W#	c #B9AEB4",
"X#	c #EEECED",
"Y#	c #6E5F61",
"Z#	c #887D7C",
"`#	c #948985",
" $	c #8C8482",
".$	c #8B8381",
"+$	c #695C5F",
"@$	c #2E1920",
"#$	c #230E16",
"$$	c #220E16",
"%$	c #200E16",
"&$	c #1F0E17",
"*$	c #1F0D17",
"=$	c #14010B",
"-$	c #15010B",
";$	c #15020C",
">$	c #3E2E36",
",$	c #D4D1D2",
"'$	c #DFDCDE",
")$	c #FDFDFD",
"!$	c #D1CACC",
"~$	c #30131C",
"{$	c #22030E",
"]$	c #250812",
"^$	c #6B585E",
"/$	c #E2DFE0",
"($	c #DAD5D3",
"_$	c #B3ABA8",
":$	c #ABA4A3",
"<$	c #A5A1A1",
"[$	c #A8A4A2",
"}$	c #837B79",
"|$	c #372824",
"1$	c #2F1D16",
"2$	c #281812",
"3$	c #291A14",
"4$	c #251614",
"5$	c #14010C",
"6$	c #3A2A32",
"7$	c #DCD9DA",
"8$	c #D1CCCE",
"9$	c #291018",
"0$	c #1A020A",
"a$	c #1D050C",
"b$	c #291619",
"c$	c #A7A1A1",
"d$	c #DBD9D9",
"e$	c #453A37",
"f$	c #251711",
"g$	c #231611",
"h$	c #221511",
"i$	c #201310",
"j$	c #13010B",
"k$	c #27161F",
"l$	c #9C9598",
"m$	c #C1BCBE",
"n$	c #C1BCBD",
"o$	c #C2BCBD",
"p$	c #C0BABB",
"q$	c #92898B",
"r$	c #1E0B10",
"s$	c #0E0207",
"t$	c #0E0306",
"u$	c #150A0B",
"v$	c #453D3D",
"w$	c #ACAAAA",
"x$	c #C0BFBF",
"y$	c #C0BEBF",
"z$	c #C2C0C1",
"A$	c #949294",
"B$	c #251F20",
"C$	c #160C0B",
"D$	c #1E120F",
"E$	c #221410",
"F$	c #14010A",
"G$	c #15010A",
"H$	c #1A060E",
"I$	c #241217",
"J$	c #301B21",
"K$	c #331D23",
"L$	c #2F1A20",
"M$	c #1C0E12",
"N$	c #13060B",
"O$	c #090104",
"P$	c #030002",
"Q$	c #060105",
"R$	c #0B0609",
"S$	c #191718",
"T$	c #231F21",
"U$	c #242022",
"V$	c #232022",
"W$	c #241E22",
"X$	c #171216",
"Y$	c #0F060C",
"Z$	c #12060C",
"`$	c #180B0D",
" %	c #110109",
".%	c #130207",
"+%	c #1C0408",
"@%	c #1F0209",
"#%	c #1C0208",
"$%	c #180208",
"%%	c #0B0106",
"&%	c #080105",
"*%	c #050104",
"=%	c #030103",
"-%	c #030003",
";%	c #020003",
">%	c #010002",
",%	c #030001",
"'%	c #060205",
")%	c #040104",
"!%	c #0B0308",
"~%	c #0C030A",
"{%	c #0F030B",
"]%	c #100106",
"^%	c #1C0108",
"/%	c #200209",
"(%	c #140207",
"_%	c #120107",
":%	c #090105",
"<%	c #020002",
"[%	c #020102",
"}%	c #010003",
"|%	c #0A0107",
"1%	c #090107",
"2%	c #0B0108",
"3%	c #12020C",
"4%	c #13030D",
"5%	c #1E0209",
"6%	c #170108",
"7%	c #17010A",
"8%	c #130109",
"9%	c #0D0107",
"0%	c #100109",
"a%	c #11010A",
"b%	c #14020C",
"c%	c #15020D",
"d%	c #16020D",
"e%	c #16020E",
"f%	c #17020E",
"g%	c #16020F",
"h%	c #1D010B",
"i%	c #1D010D",
"j%	c #1B010D",
"k%	c #1A010D",
"l%	c #19010F",
"m%	c #19010E",
"n%	c #18020E",
"o%	c #18010E",
"p%	c #18010D",
"q%	c #17010E",
"                        . + + @ # $ # #                         ",
"                  % & * = - ; > , ' ) ! > ~ {                   ",
"                ] ^ / ( _ : & < [ < < } | 1 2 > 3               ",
"            4 5 6 7 8 9 0 a b c d e d f g < h i j k             ",
"          l m n o p q r s t u ( ( v b w x y z A A B B           ",
"        C n D E F G H I J K L M u u N O P Q R S T U V W         ",
"      X Y Z `  ...+.@.#.$.%.&.*.^ =.-.;.>.,.,.'.).!.~.{.].      ",
"      ^./.(._.:.<.<.<.<.<.[.}.|.1.1.2.3.<.<.<.<.4.5.6.e 7.7.    ",
"    8.9.0.a.b.c.d.e.f.g.h.<.i.j.k.1.l.m.n.o.p.<.q.r.s.t.u.v.    ",
"  l a.w.x.w.y.z.A.B.C.D.E.F.<.G.H.I.J.K.n.L.M.<.N.O.P.Q.R.S.T.  ",
"  U.V.W.W.X.Y.Z.`. + +.+++@+<.#+$+%+&+m.n.*+=+<.-+;+>+>+T.,+'+  ",
"  )+!+~+{+x.]+^+/+(+_+ +:+<+[+<.}+|+1+m.`.2+3+<.q.4+5+s.6+7+,+  ",
"8+9+0+a+b+W.c+^+<.d+e+f+g+h+i+f+[.j+k+l+F.m+3+<.-+n+o+p+R.s.6+'+",
"q+r+s+t+a+u+v+^+<.w+x+y+<.z+A+B+<.C+D+E+F+G+H+<.q.r.I+>+R.Q.J+T.",
"K+L+M+N+t+O+c+^+<.P+Q+R+n.S+T+U+V+<.W+X+Y+Z+`+<. @;+.@+@@@J+S.#@",
"$@$@%@q+N+&@*@^+<.=@-@;@>@<.,@'@)@<.!@~@{@]@^@<.-+/@(@@@_@:@<@[@",
"}@|@}@1@2@3@4@5@<.6@7@8@9@0@<.a@b@o.<.c@d@e@f@<.g@h@i@j@k@l@m@n@",
"o@o@p@%@q@r@s@t@<.u@v@w@x@y@<.z@A@B@_+(+C@D@^@<.g@E@F@F@G@H@I@J@",
"|@|@|@%@K@L@M@N@<.O@P@Q@R@S@T@<.U@V@W@<.X@Y@Z@<.`@ #F@.#+#@###$#",
"%#&#|@%#$@*#=#-#<.;#>#,#'#)#!#~#{#]#^#S+/#(#_#<.:#<#[#}#|#1#2#3#",
"  4#4#5#5#6#7#8#<.9#0#/+a#b#c#d#<.e#f#t@n.(+g#<.h#i#j#k#l#3#m#  ",
"  n#4#o#p#q#r#8#<.s#0#f+t#u#v#w#x#<.y#z#A# +B#C#D#E#F#G#G#H#I#  ",
"  J#K#K#L#M#N#O#<.P#Q#R#S#T#U#V#W#<.X#Y#Z#`# $.$+$@$#$$$%$&$*$  ",
"    =$-$-$;$>$O#<.,$'$)$!$~${$]$^$/$<.($_$:$<$[$}$|$1$2$3$4$    ",
"      -$=$5$6$7$<.<.<.<.8$9$0$a$b$c$n.<.<.<.<.<.d$e$f$g$h$i$    ",
"      j$j$=$k$l$m$n$o$p$q$r$s$t$u$v$w$x$y$y$y$z$A$B$C$D$E$      ",
"        F$G$H$I$J$K$K$L$M$N$O$P$Q$R$S$T$U$U$V$W$X$Y$Z$`$        ",
"           %.%+%@%#%$%%%&%*%=%-%-%;%>%,%=%'%>%)%!%~%{%          ",
"            ]%^%/%(%_%:%<%-%;%>%[%}%<%-%Q$|%1%2%3%4%            ",
"                5%6%7%8%9%0%a%j$b%c%c%d%e%f%e%g%e%              ",
"                  h%i%j%k%j%k%k%l%m%n%n%o%f%n%                  ",
"                        k%m%p%p%o%o%n%q%                        "};
