/* XPM */
static char * bitcoin16_xpm[] = {
"16 16 202 2",
"  	c None",
". 	c #210117",
"+ 	c #1E0115",
"@ 	c #1C0114",
"# 	c #1C0115",
"$ 	c #1D0316",
"% 	c #2C011C",
"& 	c #2B011C",
"* 	c #28001A",
"= 	c #250018",
"- 	c #230118",
"; 	c #220118",
"> 	c #210118",
", 	c #200017",
"' 	c #1F0016",
") 	c #1E0117",
"! 	c #2E011B",
"~ 	c #380C26",
"{ 	c #4A203A",
"] 	c #492039",
"^ 	c #3E1931",
"/ 	c #2B051F",
"( 	c #26001A",
"_ 	c #2F0C25",
": 	c #3E1E33",
"< 	c #3C1D33",
"[ 	c #2E0F26",
"} 	c #200019",
"| 	c #2E001A",
"1 	c #30031C",
"2 	c #69475B",
"3 	c #C8BBC2",
"4 	c #C5B7BF",
"5 	c #BFB2BA",
"6 	c #55354A",
"7 	c #260019",
"8 	c #6D5164",
"9 	c #C8BEC4",
"0 	c #C3B9C0",
"a 	c #7C6676",
"b 	c #24011C",
"c 	c #30011C",
"d 	c #33031F",
"e 	c #715063",
"f 	c #DAD2D6",
"g 	c #C8BCC4",
"h 	c #EDE8EA",
"i 	c #AC9BA6",
"j 	c #330A26",
"k 	c #8F7887",
"l 	c #F6F3F4",
"m 	c #E4DDE1",
"n 	c #A898A3",
"o 	c #210017",
"p 	c #27021E",
"q 	c #2E0018",
"r 	c #2F011A",
"s 	c #33041E",
"t 	c #7D5E70",
"u 	c #E8E2E5",
"v 	c #D3C9CF",
"w 	c #B6A5B0",
"x 	c #EAE4E7",
"y 	c #67475C",
"z 	c #927C8A",
"A 	c #ECE8EA",
"B 	c #C4B8C0",
"C 	c #A696A2",
"D 	c #230018",
"E 	c #27031E",
"F 	c #2A0014",
"G 	c #2C0015",
"H 	c #33041D",
"I 	c #907584",
"J 	c #E0D7DC",
"K 	c #CABCC5",
"L 	c #C9BBC4",
"M 	c #D4C8CF",
"N 	c #C9BCC4",
"O 	c #6E5163",
"P 	c #96818E",
"Q 	c #C6BBC3",
"R 	c #A696A1",
"S 	c #230017",
"T 	c #28021E",
"U 	c #28031F",
"V 	c #240010",
"W 	c #270011",
"X 	c #31051A",
"Y 	c #907683",
"Z 	c #CABDC5",
"` 	c #734F65",
" .	c #DCD2D8",
"..	c #B09BA8",
"+.	c #F1EDF0",
"@.	c #8C7484",
"#.	c #3D162F",
"$.	c #A797A2",
"%.	c #250019",
"&.	c #2A0520",
"*.	c #290620",
"=.	c #20000E",
"-.	c #230010",
";.	c #2D0416",
">.	c #8D7680",
",.	c #CDC1C8",
"'.	c #40122F",
").	c #9E8696",
"!.	c #D9CFD6",
"~.	c #BAAAB5",
"{.	c #4B273F",
"].	c #C7BAC2",
"^.	c #A799A2",
"/.	c #240117",
"(.	c #2B0B1F",
"_.	c #22000E",
":.	c #22000F",
"<.	c #2A0414",
"[.	c #89747C",
"}.	c #DDD4D8",
"|.	c #A28D98",
"1.	c #7C5F6F",
"2.	c #DBD4D8",
"3.	c #AC9AA4",
"4.	c #E8E3E5",
"5.	c #B5A6AE",
"6.	c #C9BEC5",
"7.	c #A698A0",
"8.	c #230116",
"9.	c #2B0D1F",
"0.	c #290E1D",
"a.	c #23000D",
"b.	c #24000E",
"c.	c #280412",
"d.	c #87727A",
"e.	c #E5DFE2",
"f.	c #DBD3D6",
"g.	c #7E6471",
"h.	c #856C79",
"i.	c #EBE6E9",
"j.	c #9B8992",
"k.	c #FEFDFD",
"l.	c #F9F8F8",
"m.	c #9F939A",
"n.	c #1E0212",
"o.	c #240B1A",
"p.	c #240D1A",
"q.	c #1A000C",
"r.	c #1E0510",
"s.	c #7E7277",
"t.	c #EEECED",
"u.	c #E4E2E3",
"v.	c #7A676E",
"w.	c #270713",
"x.	c #CCC6C8",
"y.	c #C8C2C2",
"z.	c #9B918F",
"A.	c #938C8B",
"B.	c #594B4C",
"C.	c #231112",
"D.	c #231215",
"E.	c #13010A",
"F.	c #16040D",
"G.	c #6B5F65",
"H.	c #F3F1F1",
"I.	c #ECEAEA",
"J.	c #66575C",
"K.	c #100003",
"L.	c #554A4B",
"M.	c #E0DEDE",
"N.	c #E9E9E9",
"O.	c #E5E4E5",
"P.	c #898483",
"Q.	c #190C08",
"R.	c #211510",
"S.	c #14010A",
"T.	c #1B060D",
"U.	c #260E15",
"V.	c #200D13",
"W.	c #10060A",
"X.	c #040103",
"Y.	c #020002",
"Z.	c #110E0F",
"`.	c #161215",
" +	c #161014",
".+	c #0F070C",
"++	c #12050B",
"@+	c #150006",
"#+	c #1A0006",
"$+	c #0E0005",
"%+	c #090005",
"&+	c #0A0106",
"*+	c #0A0007",
"=+	c #080004",
"-+	c #0B0006",
";+	c #090006",
">+	c #10010A",
",+	c #1A010C",
"'+	c #19010D",
")+	c #19010E",
"!+	c #1A020F",
"~+	c #1A0210",
"          . + @ # # $           ",
"      % & * = - ; > , ' )       ",
"    ! ~ { ] ^ / ( _ : < [ }     ",
"  | 1 2 3 4 5 6 7 8 9 0 a ' b   ",
"  c d e f g h i j k l m n o p   ",
"q r s t u v w x y z A B C D p E ",
"F G H I J K L M N O P Q R S T U ",
"V W X Y Z `  ...+.@.#.g $.%.&.*.",
"=.-.;.>.,.'.).!.~.x {.].^./.(.(.",
"_.:.<.[.}.|.1.2.3.4.5.6.7.8.9.0.",
"a.b.c.d.e.f.g.h.i.j.k.l.m.n.o.p.",
"  q.r.s.t.u.v.w.x.y.z.A.B.C.D.  ",
"  E.F.G.H.I.J.K.L.M.N.O.P.Q.R.  ",
"    S.T.U.V.W.X.Y.Z.`. +.+++    ",
"      @+#+$+%+&+*+=+-+;+>+      ",
"          ,+'+)+!+~+~+          "};
